<?xml version="1.0" encoding="UTF-8" standalone="no"?>
<!DOCTYPE svg PUBLIC "-//W3C//DTD SVG 1.1//EN"
 "http://www.w3.org/Graphics/SVG/1.1/DTD/svg11.dtd">
<!-- Generated by graphviz version 2.48.0 (0)
 -->
<!-- Title: neomutt Pages: 1 -->
<svg width="578pt" height="228pt"
 viewBox="0.00 0.00 578.00 228.00" xmlns="http://www.w3.org/2000/svg" xmlns:xlink="http://www.w3.org/1999/xlink">
<g id="graph0" class="graph" transform="scale(1 1) rotate(0) translate(4 224)">
<title>neomutt</title>
<polygon fill="white" stroke="transparent" points="-4,4 -4,-224 574,-224 574,4 -4,4"/>
<!-- email -->
<g id="node1" class="node">
<title>email</title>
<polygon fill="#ffffc0" stroke="transparent" points="199.5,-193 199.5,-219 268.5,-219 268.5,-193 199.5,-193"/>
<text text-anchor="start" x="201.5" y="-202" font-family="Times,serif" font-weight="bold" font-size="20.00" fill="#000000">Email</text>
<polygon fill="none" stroke="#d0d0d0" points="198,-192 198,-220 269,-220 269,-192 198,-192"/>
</g>
<!-- obj_0xa2b390 -->
<g id="node2" class="node">
<title>obj_0xa2b390</title>
<polygon fill="#c0c0ff" stroke="transparent" points="51.5,-129 51.5,-155 114.5,-155 114.5,-129 51.5,-129"/>
<text text-anchor="start" x="53.5" y="-138" font-family="Times,serif" font-weight="bold" font-size="20.00" fill="#000000">Body</text>
<polygon fill="none" stroke="#d0d0d0" points="50,-128 50,-156 115,-156 115,-128 50,-128"/>
</g>
<!-- email&#45;&gt;obj_0xa2b390 -->
<g id="edge1" class="edge">
<title>email&#45;&gt;obj_0xa2b390</title>
<path fill="none" stroke="#4040ff" stroke-width="3.5" d="M201.48,-191.85C178.78,-182.53 148.13,-169.95 123.62,-159.88"/>
<polygon fill="#4040ff" stroke="#4040ff" stroke-width="3.5" points="124.8,-156.58 114.22,-156.02 122.14,-163.06 124.8,-156.58"/>
</g>
<!-- obj_0xa2b450 -->
<g id="node3" class="node">
<title>obj_0xa2b450</title>
<polygon fill="#c0c0ff" stroke="transparent" points="152.5,-129 152.5,-155 215.5,-155 215.5,-129 152.5,-129"/>
<text text-anchor="start" x="154.5" y="-138" font-family="Times,serif" font-weight="bold" font-size="20.00" fill="#000000">Body</text>
<polygon fill="none" stroke="#d0d0d0" points="151,-128 151,-156 216,-156 216,-128 151,-128"/>
</g>
<!-- email&#45;&gt;obj_0xa2b450 -->
<g id="edge2" class="edge">
<title>email&#45;&gt;obj_0xa2b450</title>
<path fill="none" stroke="#4040ff" stroke-width="3.5" d="M222.9,-191.85C216.4,-183.8 207.94,-173.3 200.52,-164.1"/>
<polygon fill="#4040ff" stroke="#4040ff" stroke-width="3.5" points="203.09,-161.72 194.09,-156.13 197.64,-166.11 203.09,-161.72"/>
</g>
<!-- obj_0xa2b610 -->
<g id="node4" class="node">
<title>obj_0xa2b610</title>
<polygon fill="#c0c0ff" stroke="transparent" points="253.5,-129 253.5,-155 316.5,-155 316.5,-129 253.5,-129"/>
<text text-anchor="start" x="255.5" y="-138" font-family="Times,serif" font-weight="bold" font-size="20.00" fill="#000000">Body</text>
<polygon fill="none" stroke="#d0d0d0" points="252,-128 252,-156 317,-156 317,-128 252,-128"/>
</g>
<!-- email&#45;&gt;obj_0xa2b610 -->
<g id="edge3" class="edge">
<title>email&#45;&gt;obj_0xa2b610</title>
<path fill="none" stroke="#4040ff" stroke-width="3.5" d="M244.32,-191.85C250.94,-183.8 259.58,-173.3 267.14,-164.1"/>
<polygon fill="#4040ff" stroke="#4040ff" stroke-width="3.5" points="270.05,-166.08 273.7,-156.13 264.64,-161.63 270.05,-166.08"/>
</g>
<!-- obj_0xa2baf0 -->
<g id="node14" class="node">
<title>obj_0xa2baf0</title>
<polygon fill="#c0c0ff" stroke="transparent" points="354.5,-129 354.5,-155 417.5,-155 417.5,-129 354.5,-129"/>
<text text-anchor="start" x="356.5" y="-138" font-family="Times,serif" font-weight="bold" font-size="20.00" fill="#000000">Body</text>
<polygon fill="none" stroke="#d0d0d0" points="353,-128 353,-156 418,-156 418,-128 353,-128"/>
</g>
<!-- email&#45;&gt;obj_0xa2baf0 -->
<g id="edge4" class="edge">
<title>email&#45;&gt;obj_0xa2baf0</title>
<path fill="none" stroke="#4040ff" stroke-width="3.5" d="M265.74,-191.85C288.58,-182.53 319.44,-169.95 344.11,-159.88"/>
<polygon fill="#4040ff" stroke="#4040ff" stroke-width="3.5" points="345.63,-163.04 353.57,-156.02 342.99,-156.56 345.63,-163.04"/>
</g>
<!-- obj_0xa2b390&#45;&gt;obj_0xa2b450 -->
<g id="edge14" class="edge">
<title>obj_0xa2b390&#45;&gt;obj_0xa2b450</title>
<path fill="none" stroke="#8080ff" stroke-width="1.5" d="M120.27,-142C128.75,-142 137.22,-142 145.7,-142"/>
<polygon fill="#8080ff" stroke="#8080ff" stroke-width="1.5" points="120.25,-140.25 115.25,-142 120.25,-143.75 120.25,-140.25"/>
<polygon fill="#8080ff" stroke="#8080ff" stroke-width="1.5" points="145.97,-143.75 150.97,-142 145.97,-140.25 145.97,-143.75"/>
</g>
<!-- obj_0xa2b450&#45;&gt;obj_0xa2b610 -->
<g id="edge15" class="edge">
<title>obj_0xa2b450&#45;&gt;obj_0xa2b610</title>
<path fill="none" stroke="#8080ff" stroke-width="1.5" d="M221.27,-142C229.75,-142 238.22,-142 246.7,-142"/>
<polygon fill="#8080ff" stroke="#8080ff" stroke-width="1.5" points="221.25,-140.25 216.25,-142 221.25,-143.75 221.25,-140.25"/>
<polygon fill="#8080ff" stroke="#8080ff" stroke-width="1.5" points="246.97,-143.75 251.97,-142 246.97,-140.25 246.97,-143.75"/>
</g>
<!-- obj_0xa2b8a0 -->
<g id="node5" class="node">
<title>obj_0xa2b8a0</title>
<polygon fill="#c0c0ff" stroke="transparent" points="152.5,-65 152.5,-91 215.5,-91 215.5,-65 152.5,-65"/>
<text text-anchor="start" x="154.5" y="-74" font-family="Times,serif" font-weight="bold" font-size="20.00" fill="#000000">Body</text>
<polygon fill="none" stroke="#d0d0d0" points="151,-64 151,-92 216,-92 216,-64 151,-64"/>
</g>
<!-- obj_0xa2b610&#45;&gt;obj_0xa2b8a0 -->
<g id="edge5" class="edge">
<title>obj_0xa2b610&#45;&gt;obj_0xa2b8a0</title>
<path fill="none" stroke="#4040ff" stroke-width="3.5" d="M263.08,-127.85C248.75,-119.06 229.69,-107.35 213.81,-97.61"/>
<polygon fill="#4040ff" stroke="#4040ff" stroke-width="3.5" points="215.24,-94.38 204.89,-92.13 211.58,-100.34 215.24,-94.38"/>
</g>
<!-- obj_0xa301c0 -->
<g id="node9" class="node">
<title>obj_0xa301c0</title>
<polygon fill="#c0c0ff" stroke="transparent" points="253.5,-65 253.5,-91 316.5,-91 316.5,-65 253.5,-65"/>
<text text-anchor="start" x="255.5" y="-74" font-family="Times,serif" font-weight="bold" font-size="20.00" fill="#000000">Body</text>
<polygon fill="none" stroke="#d0d0d0" points="252,-64 252,-92 317,-92 317,-64 252,-64"/>
</g>
<!-- obj_0xa2b610&#45;&gt;obj_0xa301c0 -->
<g id="edge6" class="edge">
<title>obj_0xa2b610&#45;&gt;obj_0xa301c0</title>
<path fill="none" stroke="#4040ff" stroke-width="3.5" d="M284.5,-127.85C284.5,-120.45 284.5,-111 284.5,-102.38"/>
<polygon fill="#4040ff" stroke="#4040ff" stroke-width="3.5" points="288,-102.13 284.5,-92.13 281,-102.13 288,-102.13"/>
</g>
<!-- obj_0xa30280 -->
<g id="node10" class="node">
<title>obj_0xa30280</title>
<polygon fill="#c0c0ff" stroke="transparent" points="354.5,-65 354.5,-91 417.5,-91 417.5,-65 354.5,-65"/>
<text text-anchor="start" x="356.5" y="-74" font-family="Times,serif" font-weight="bold" font-size="20.00" fill="#000000">Body</text>
<polygon fill="none" stroke="#d0d0d0" points="353,-64 353,-92 418,-92 418,-64 353,-64"/>
</g>
<!-- obj_0xa2b610&#45;&gt;obj_0xa30280 -->
<g id="edge7" class="edge">
<title>obj_0xa2b610&#45;&gt;obj_0xa30280</title>
<path fill="none" stroke="#4040ff" stroke-width="3.5" d="M305.92,-127.85C320.25,-119.06 339.31,-107.35 355.19,-97.61"/>
<polygon fill="#4040ff" stroke="#4040ff" stroke-width="3.5" points="357.42,-100.34 364.11,-92.13 353.76,-94.38 357.42,-100.34"/>
</g>
<!-- obj_0xa2b610&#45;&gt;obj_0xa2baf0 -->
<g id="edge16" class="edge">
<title>obj_0xa2b610&#45;&gt;obj_0xa2baf0</title>
<path fill="none" stroke="#8080ff" stroke-width="1.5" d="M322.27,-142C330.75,-142 339.22,-142 347.7,-142"/>
<polygon fill="#8080ff" stroke="#8080ff" stroke-width="1.5" points="322.25,-140.25 317.25,-142 322.25,-143.75 322.25,-140.25"/>
<polygon fill="#8080ff" stroke="#8080ff" stroke-width="1.5" points="347.97,-143.75 352.97,-142 347.97,-140.25 347.97,-143.75"/>
</g>
<!-- obj_0xa30480 -->
<g id="node6" class="node">
<title>obj_0xa30480</title>
<polygon fill="#c0c0ff" stroke="transparent" points="1.5,-1 1.5,-27 64.5,-27 64.5,-1 1.5,-1"/>
<text text-anchor="start" x="3.5" y="-10" font-family="Times,serif" font-weight="bold" font-size="20.00" fill="#000000">Body</text>
<polygon fill="none" stroke="#d0d0d0" points="0,0 0,-28 65,-28 65,0 0,0"/>
</g>
<!-- obj_0xa2b8a0&#45;&gt;obj_0xa30480 -->
<g id="edge8" class="edge">
<title>obj_0xa2b8a0&#45;&gt;obj_0xa30480</title>
<path fill="none" stroke="#4040ff" stroke-width="3.5" d="M151.48,-63.85C128.78,-54.53 98.13,-41.95 73.62,-31.88"/>
<polygon fill="#4040ff" stroke="#4040ff" stroke-width="3.5" points="74.8,-28.58 64.22,-28.02 72.14,-35.06 74.8,-28.58"/>
</g>
<!-- obj_0xa30540 -->
<g id="node7" class="node">
<title>obj_0xa30540</title>
<polygon fill="#c0c0ff" stroke="transparent" points="102.5,-1 102.5,-27 165.5,-27 165.5,-1 102.5,-1"/>
<text text-anchor="start" x="104.5" y="-10" font-family="Times,serif" font-weight="bold" font-size="20.00" fill="#000000">Body</text>
<polygon fill="none" stroke="#d0d0d0" points="101,0 101,-28 166,-28 166,0 101,0"/>
</g>
<!-- obj_0xa2b8a0&#45;&gt;obj_0xa30540 -->
<g id="edge9" class="edge">
<title>obj_0xa2b8a0&#45;&gt;obj_0xa30540</title>
<path fill="none" stroke="#4040ff" stroke-width="3.5" d="M172.9,-63.85C166.4,-55.8 157.94,-45.3 150.52,-36.1"/>
<polygon fill="#4040ff" stroke="#4040ff" stroke-width="3.5" points="153.09,-33.72 144.09,-28.13 147.64,-38.11 153.09,-33.72"/>
</g>
<!-- obj_0xa307d0 -->
<g id="node8" class="node">
<title>obj_0xa307d0</title>
<polygon fill="#c0c0ff" stroke="transparent" points="203.5,-1 203.5,-27 266.5,-27 266.5,-1 203.5,-1"/>
<text text-anchor="start" x="205.5" y="-10" font-family="Times,serif" font-weight="bold" font-size="20.00" fill="#000000">Body</text>
<polygon fill="none" stroke="#d0d0d0" points="202,0 202,-28 267,-28 267,0 202,0"/>
</g>
<!-- obj_0xa2b8a0&#45;&gt;obj_0xa307d0 -->
<g id="edge10" class="edge">
<title>obj_0xa2b8a0&#45;&gt;obj_0xa307d0</title>
<path fill="none" stroke="#4040ff" stroke-width="3.5" d="M194.32,-63.85C200.94,-55.8 209.58,-45.3 217.14,-36.1"/>
<polygon fill="#4040ff" stroke="#4040ff" stroke-width="3.5" points="220.05,-38.08 223.7,-28.13 214.64,-33.63 220.05,-38.08"/>
</g>
<!-- obj_0xa2b8a0&#45;&gt;obj_0xa301c0 -->
<g id="edge17" class="edge">
<title>obj_0xa2b8a0&#45;&gt;obj_0xa301c0</title>
<path fill="none" stroke="#8080ff" stroke-width="1.5" d="M221.27,-78C229.75,-78 238.22,-78 246.7,-78"/>
<polygon fill="#8080ff" stroke="#8080ff" stroke-width="1.5" points="221.25,-76.25 216.25,-78 221.25,-79.75 221.25,-76.25"/>
<polygon fill="#8080ff" stroke="#8080ff" stroke-width="1.5" points="246.97,-79.75 251.97,-78 246.97,-76.25 246.97,-79.75"/>
</g>
<!-- obj_0xa30480&#45;&gt;obj_0xa30540 -->
<g id="edge19" class="edge">
<title>obj_0xa30480&#45;&gt;obj_0xa30540</title>
<path fill="none" stroke="#8080ff" stroke-width="1.5" d="M70.27,-14C78.75,-14 87.22,-14 95.7,-14"/>
<polygon fill="#8080ff" stroke="#8080ff" stroke-width="1.5" points="70.25,-12.25 65.25,-14 70.25,-15.75 70.25,-12.25"/>
<polygon fill="#8080ff" stroke="#8080ff" stroke-width="1.5" points="95.97,-15.75 100.97,-14 95.97,-12.25 95.97,-15.75"/>
</g>
<!-- obj_0xa30540&#45;&gt;obj_0xa307d0 -->
<g id="edge20" class="edge">
<title>obj_0xa30540&#45;&gt;obj_0xa307d0</title>
<path fill="none" stroke="#8080ff" stroke-width="1.5" d="M171.27,-14C179.75,-14 188.22,-14 196.7,-14"/>
<polygon fill="#8080ff" stroke="#8080ff" stroke-width="1.5" points="171.25,-12.25 166.25,-14 171.25,-15.75 171.25,-12.25"/>
<polygon fill="#8080ff" stroke="#8080ff" stroke-width="1.5" points="196.97,-15.75 201.97,-14 196.97,-12.25 196.97,-15.75"/>
</g>
<!-- obj_0xa301c0&#45;&gt;obj_0xa30280 -->
<g id="edge18" class="edge">
<title>obj_0xa301c0&#45;&gt;obj_0xa30280</title>
<path fill="none" stroke="#8080ff" stroke-width="1.5" d="M322.27,-78C330.75,-78 339.22,-78 347.7,-78"/>
<polygon fill="#8080ff" stroke="#8080ff" stroke-width="1.5" points="322.25,-76.25 317.25,-78 322.25,-79.75 322.25,-76.25"/>
<polygon fill="#8080ff" stroke="#8080ff" stroke-width="1.5" points="347.97,-79.75 352.97,-78 347.97,-76.25 347.97,-79.75"/>
</g>
<!-- obj_0xa30890 -->
<g id="node11" class="node">
<title>obj_0xa30890</title>
<polygon fill="#c0c0ff" stroke="transparent" points="304.5,-1 304.5,-27 367.5,-27 367.5,-1 304.5,-1"/>
<text text-anchor="start" x="306.5" y="-10" font-family="Times,serif" font-weight="bold" font-size="20.00" fill="#000000">Body</text>
<polygon fill="none" stroke="#d0d0d0" points="303,0 303,-28 368,-28 368,0 303,0"/>
</g>
<!-- obj_0xa30280&#45;&gt;obj_0xa30890 -->
<g id="edge11" class="edge">
<title>obj_0xa30280&#45;&gt;obj_0xa30890</title>
<path fill="none" stroke="#4040ff" stroke-width="3.5" d="M374.9,-63.85C368.4,-55.8 359.94,-45.3 352.52,-36.1"/>
<polygon fill="#4040ff" stroke="#4040ff" stroke-width="3.5" points="355.09,-33.72 346.09,-28.13 349.64,-38.11 355.09,-33.72"/>
</g>
<!-- obj_0xa30ab0 -->
<g id="node12" class="node">
<title>obj_0xa30ab0</title>
<polygon fill="#c0c0ff" stroke="transparent" points="405.5,-1 405.5,-27 468.5,-27 468.5,-1 405.5,-1"/>
<text text-anchor="start" x="407.5" y="-10" font-family="Times,serif" font-weight="bold" font-size="20.00" fill="#000000">Body</text>
<polygon fill="none" stroke="#d0d0d0" points="404,0 404,-28 469,-28 469,0 404,0"/>
</g>
<!-- obj_0xa30280&#45;&gt;obj_0xa30ab0 -->
<g id="edge12" class="edge">
<title>obj_0xa30280&#45;&gt;obj_0xa30ab0</title>
<path fill="none" stroke="#4040ff" stroke-width="3.5" d="M396.32,-63.85C402.94,-55.8 411.58,-45.3 419.14,-36.1"/>
<polygon fill="#4040ff" stroke="#4040ff" stroke-width="3.5" points="422.05,-38.08 425.7,-28.13 416.64,-33.63 422.05,-38.08"/>
</g>
<!-- obj_0xa30b70 -->
<g id="node13" class="node">
<title>obj_0xa30b70</title>
<polygon fill="#c0c0ff" stroke="transparent" points="506.5,-1 506.5,-27 569.5,-27 569.5,-1 506.5,-1"/>
<text text-anchor="start" x="508.5" y="-10" font-family="Times,serif" font-weight="bold" font-size="20.00" fill="#000000">Body</text>
<polygon fill="none" stroke="#d0d0d0" points="505,0 505,-28 570,-28 570,0 505,0"/>
</g>
<!-- obj_0xa30280&#45;&gt;obj_0xa30b70 -->
<g id="edge13" class="edge">
<title>obj_0xa30280&#45;&gt;obj_0xa30b70</title>
<path fill="none" stroke="#4040ff" stroke-width="3.5" d="M417.74,-63.85C440.58,-54.53 471.44,-41.95 496.11,-31.88"/>
<polygon fill="#4040ff" stroke="#4040ff" stroke-width="3.5" points="497.63,-35.04 505.57,-28.02 494.99,-28.56 497.63,-35.04"/>
</g>
<!-- obj_0xa30890&#45;&gt;obj_0xa30ab0 -->
<g id="edge21" class="edge">
<title>obj_0xa30890&#45;&gt;obj_0xa30ab0</title>
<path fill="none" stroke="#8080ff" stroke-width="1.5" d="M373.27,-14C381.75,-14 390.22,-14 398.7,-14"/>
<polygon fill="#8080ff" stroke="#8080ff" stroke-width="1.5" points="373.25,-12.25 368.25,-14 373.25,-15.75 373.25,-12.25"/>
<polygon fill="#8080ff" stroke="#8080ff" stroke-width="1.5" points="398.97,-15.75 403.97,-14 398.97,-12.25 398.97,-15.75"/>
</g>
<!-- obj_0xa30ab0&#45;&gt;obj_0xa30b70 -->
<g id="edge22" class="edge">
<title>obj_0xa30ab0&#45;&gt;obj_0xa30b70</title>
<path fill="none" stroke="#8080ff" stroke-width="1.5" d="M474.27,-14C482.75,-14 491.22,-14 499.7,-14"/>
<polygon fill="#8080ff" stroke="#8080ff" stroke-width="1.5" points="474.25,-12.25 469.25,-14 474.25,-15.75 474.25,-12.25"/>
<polygon fill="#8080ff" stroke="#8080ff" stroke-width="1.5" points="499.97,-15.75 504.97,-14 499.97,-12.25 499.97,-15.75"/>
</g>
</g>
</svg>
