<?xml version="1.0" encoding="UTF-8" standalone="no"?>
<!DOCTYPE svg PUBLIC "-//W3C//DTD SVG 1.1//EN"
 "http://www.w3.org/Graphics/SVG/1.1/DTD/svg11.dtd">
<!-- Generated by graphviz version 2.48.0 (0)
 -->
<!-- Title: neomutt Pages: 1 -->
<svg width="770pt" height="228pt"
 viewBox="0.00 0.00 770.00 228.00" xmlns="http://www.w3.org/2000/svg" xmlns:xlink="http://www.w3.org/1999/xlink">
<g id="graph0" class="graph" transform="scale(1 1) rotate(0) translate(4 224)">
<title>neomutt</title>
<polygon fill="white" stroke="transparent" points="-4,4 -4,-224 766,-224 766,4 -4,4"/>
<!-- email -->
<g id="node1" class="node">
<title>email</title>
<polygon fill="#ffffc0" stroke="transparent" points="1.5,-193 1.5,-219 70.5,-219 70.5,-193 1.5,-193"/>
<text text-anchor="start" x="3.5" y="-202" font-family="Times,serif" font-weight="bold" font-size="20.00" fill="#000000">Email</text>
<polygon fill="none" stroke="#d0d0d0" points="0,-192 0,-220 71,-220 71,-192 0,-192"/>
</g>
<!-- obj_0xa2b390 -->
<g id="node2" class="node">
<title>obj_0xa2b390</title>
<polygon fill="#c0c0ff" stroke="transparent" points="4.5,-129 4.5,-155 67.5,-155 67.5,-129 4.5,-129"/>
<text text-anchor="start" x="6.5" y="-138" font-family="Times,serif" font-weight="bold" font-size="20.00" fill="#000000">Body</text>
<polygon fill="none" stroke="#d0d0d0" points="3,-128 3,-156 68,-156 68,-128 3,-128"/>
</g>
<!-- email&#45;&gt;obj_0xa2b390 -->
<g id="edge1" class="edge">
<title>email&#45;&gt;obj_0xa2b390</title>
<path fill="none" stroke="#c0c0c0" stroke-width="4.5" d="M35.5,-191.85C35.5,-184.45 35.5,-175 35.5,-166.38"/>
<polygon fill="#c0c0c0" stroke="#c0c0c0" stroke-width="4.5" points="39.44,-166.13 35.5,-156.13 31.56,-166.13 39.44,-166.13"/>
</g>
<!-- obj_0xa2b450 -->
<g id="node3" class="node">
<title>obj_0xa2b450</title>
<polygon fill="#c0c0ff" stroke="transparent" points="105.5,-129 105.5,-155 168.5,-155 168.5,-129 105.5,-129"/>
<text text-anchor="start" x="107.5" y="-138" font-family="Times,serif" font-weight="bold" font-size="20.00" fill="#000000">Body</text>
<polygon fill="none" stroke="#d0d0d0" points="104,-128 104,-156 169,-156 169,-128 104,-128"/>
</g>
<!-- obj_0xa2b390&#45;&gt;obj_0xa2b450 -->
<g id="edge2" class="edge">
<title>obj_0xa2b390&#45;&gt;obj_0xa2b450</title>
<g id="a_edge2"><a xlink:title="Body&#45;&gt;next">
<path fill="none" stroke="#008000" stroke-width="4.5" d="M68.25,-142C76.81,-142 85.37,-142 93.92,-142"/>
<polygon fill="#008000" stroke="#008000" stroke-width="4.5" points="93.97,-145.94 103.97,-142 93.97,-138.06 93.97,-145.94"/>
</a>
</g>
</g>
<!-- obj_0xa2b610 -->
<g id="node4" class="node">
<title>obj_0xa2b610</title>
<polygon fill="#c0c0ff" stroke="transparent" points="206.5,-129 206.5,-155 269.5,-155 269.5,-129 206.5,-129"/>
<text text-anchor="start" x="208.5" y="-138" font-family="Times,serif" font-weight="bold" font-size="20.00" fill="#000000">Body</text>
<polygon fill="none" stroke="#d0d0d0" points="205,-128 205,-156 270,-156 270,-128 205,-128"/>
</g>
<!-- obj_0xa2b450&#45;&gt;obj_0xa2b610 -->
<g id="edge12" class="edge">
<title>obj_0xa2b450&#45;&gt;obj_0xa2b610</title>
<g id="a_edge12"><a xlink:title="Body&#45;&gt;next">
<path fill="none" stroke="#008000" stroke-width="4.5" d="M169.25,-142C177.81,-142 186.37,-142 194.92,-142"/>
<polygon fill="#008000" stroke="#008000" stroke-width="4.5" points="194.97,-145.94 204.97,-142 194.97,-138.06 194.97,-145.94"/>
</a>
</g>
</g>
<!-- obj_0xa2b8a0 -->
<g id="node5" class="node">
<title>obj_0xa2b8a0</title>
<polygon fill="#c0c0ff" stroke="transparent" points="206.5,-65 206.5,-91 269.5,-91 269.5,-65 206.5,-65"/>
<text text-anchor="start" x="208.5" y="-74" font-family="Times,serif" font-weight="bold" font-size="20.00" fill="#000000">Body</text>
<polygon fill="none" stroke="#d0d0d0" points="205,-64 205,-92 270,-92 270,-64 205,-64"/>
</g>
<!-- obj_0xa2b610&#45;&gt;obj_0xa2b8a0 -->
<g id="edge11" class="edge">
<title>obj_0xa2b610&#45;&gt;obj_0xa2b8a0</title>
<g id="a_edge11"><a xlink:title="Body&#45;&gt;parts">
<path fill="none" stroke="#ff0000" stroke-width="4.5" d="M237.5,-127.85C237.5,-120.45 237.5,-111 237.5,-102.38"/>
<polygon fill="#ff0000" stroke="#ff0000" stroke-width="4.5" points="241.44,-102.13 237.5,-92.13 233.56,-102.13 241.44,-102.13"/>
</a>
</g>
</g>
<!-- obj_0xa2baf0 -->
<g id="node14" class="node">
<title>obj_0xa2baf0</title>
<polygon fill="#c0c0ff" stroke="transparent" points="307.5,-129 307.5,-155 370.5,-155 370.5,-129 307.5,-129"/>
<text text-anchor="start" x="309.5" y="-138" font-family="Times,serif" font-weight="bold" font-size="20.00" fill="#000000">Body</text>
<polygon fill="none" stroke="#d0d0d0" points="306,-128 306,-156 371,-156 371,-128 306,-128"/>
</g>
<!-- obj_0xa2b610&#45;&gt;obj_0xa2baf0 -->
<g id="edge13" class="edge">
<title>obj_0xa2b610&#45;&gt;obj_0xa2baf0</title>
<g id="a_edge13"><a xlink:title="Body&#45;&gt;next">
<path fill="none" stroke="#008000" stroke-width="4.5" d="M270.25,-142C278.81,-142 287.37,-142 295.92,-142"/>
<polygon fill="#008000" stroke="#008000" stroke-width="4.5" points="295.97,-145.94 305.97,-142 295.97,-138.06 295.97,-145.94"/>
</a>
</g>
</g>
<!-- obj_0xa30480 -->
<g id="node6" class="node">
<title>obj_0xa30480</title>
<polygon fill="#c0c0ff" stroke="transparent" points="193.5,-1 193.5,-27 256.5,-27 256.5,-1 193.5,-1"/>
<text text-anchor="start" x="195.5" y="-10" font-family="Times,serif" font-weight="bold" font-size="20.00" fill="#000000">Body</text>
<polygon fill="none" stroke="#d0d0d0" points="192,0 192,-28 257,-28 257,0 192,0"/>
</g>
<!-- obj_0xa2b8a0&#45;&gt;obj_0xa30480 -->
<g id="edge5" class="edge">
<title>obj_0xa2b8a0&#45;&gt;obj_0xa30480</title>
<g id="a_edge5"><a xlink:title="Body&#45;&gt;parts">
<path fill="none" stroke="#ff0000" stroke-width="4.5" d="M234.74,-63.85C233.17,-56.37 231.17,-46.79 229.34,-38.09"/>
<polygon fill="#ff0000" stroke="#ff0000" stroke-width="4.5" points="233.16,-37.11 227.25,-28.13 225.45,-38.72 233.16,-37.11"/>
</a>
</g>
</g>
<!-- obj_0xa301c0 -->
<g id="node9" class="node">
<title>obj_0xa301c0</title>
<polygon fill="#c0c0ff" stroke="transparent" points="332.5,-65 332.5,-91 395.5,-91 395.5,-65 332.5,-65"/>
<text text-anchor="start" x="334.5" y="-74" font-family="Times,serif" font-weight="bold" font-size="20.00" fill="#000000">Body</text>
<polygon fill="none" stroke="#d0d0d0" points="331,-64 331,-92 396,-92 396,-64 331,-64"/>
</g>
<!-- obj_0xa2b8a0&#45;&gt;obj_0xa301c0 -->
<g id="edge6" class="edge">
<title>obj_0xa2b8a0&#45;&gt;obj_0xa301c0</title>
<g id="a_edge6"><a xlink:title="Body&#45;&gt;next">
<path fill="none" stroke="#008000" stroke-width="4.5" d="M270.48,-78C287.13,-78 303.78,-78 320.43,-78"/>
<polygon fill="#008000" stroke="#008000" stroke-width="4.5" points="320.8,-81.94 330.8,-78 320.8,-74.06 320.8,-81.94"/>
</a>
</g>
</g>
<!-- obj_0xa30540 -->
<g id="node7" class="node">
<title>obj_0xa30540</title>
<polygon fill="#c0c0ff" stroke="transparent" points="294.5,-1 294.5,-27 357.5,-27 357.5,-1 294.5,-1"/>
<text text-anchor="start" x="296.5" y="-10" font-family="Times,serif" font-weight="bold" font-size="20.00" fill="#000000">Body</text>
<polygon fill="none" stroke="#d0d0d0" points="293,0 293,-28 358,-28 358,0 293,0"/>
</g>
<!-- obj_0xa30480&#45;&gt;obj_0xa30540 -->
<g id="edge3" class="edge">
<title>obj_0xa30480&#45;&gt;obj_0xa30540</title>
<g id="a_edge3"><a xlink:title="Body&#45;&gt;next">
<path fill="none" stroke="#008000" stroke-width="4.5" d="M257.25,-14C265.81,-14 274.37,-14 282.92,-14"/>
<polygon fill="#008000" stroke="#008000" stroke-width="4.5" points="282.97,-17.94 292.97,-14 282.97,-10.06 282.97,-17.94"/>
</a>
</g>
</g>
<!-- obj_0xa307d0 -->
<g id="node8" class="node">
<title>obj_0xa307d0</title>
<polygon fill="#c0c0ff" stroke="transparent" points="395.5,-1 395.5,-27 458.5,-27 458.5,-1 395.5,-1"/>
<text text-anchor="start" x="397.5" y="-10" font-family="Times,serif" font-weight="bold" font-size="20.00" fill="#000000">Body</text>
<polygon fill="none" stroke="#d0d0d0" points="394,0 394,-28 459,-28 459,0 394,0"/>
</g>
<!-- obj_0xa30540&#45;&gt;obj_0xa307d0 -->
<g id="edge4" class="edge">
<title>obj_0xa30540&#45;&gt;obj_0xa307d0</title>
<g id="a_edge4"><a xlink:title="Body&#45;&gt;next">
<path fill="none" stroke="#008000" stroke-width="4.5" d="M358.25,-14C366.81,-14 375.37,-14 383.92,-14"/>
<polygon fill="#008000" stroke="#008000" stroke-width="4.5" points="383.97,-17.94 393.97,-14 383.97,-10.06 383.97,-17.94"/>
</a>
</g>
</g>
<!-- obj_0xa30280 -->
<g id="node10" class="node">
<title>obj_0xa30280</title>
<polygon fill="#c0c0ff" stroke="transparent" points="483.5,-65 483.5,-91 546.5,-91 546.5,-65 483.5,-65"/>
<text text-anchor="start" x="485.5" y="-74" font-family="Times,serif" font-weight="bold" font-size="20.00" fill="#000000">Body</text>
<polygon fill="none" stroke="#d0d0d0" points="482,-64 482,-92 547,-92 547,-64 482,-64"/>
</g>
<!-- obj_0xa301c0&#45;&gt;obj_0xa30280 -->
<g id="edge10" class="edge">
<title>obj_0xa301c0&#45;&gt;obj_0xa30280</title>
<g id="a_edge10"><a xlink:title="Body&#45;&gt;next">
<path fill="none" stroke="#008000" stroke-width="4.5" d="M396.24,-78C421.39,-78 446.54,-78 471.68,-78"/>
<polygon fill="#008000" stroke="#008000" stroke-width="4.5" points="471.7,-81.94 481.7,-78 471.7,-74.06 471.7,-81.94"/>
</a>
</g>
</g>
<!-- obj_0xa30890 -->
<g id="node11" class="node">
<title>obj_0xa30890</title>
<polygon fill="#c0c0ff" stroke="transparent" points="496.5,-1 496.5,-27 559.5,-27 559.5,-1 496.5,-1"/>
<text text-anchor="start" x="498.5" y="-10" font-family="Times,serif" font-weight="bold" font-size="20.00" fill="#000000">Body</text>
<polygon fill="none" stroke="#d0d0d0" points="495,0 495,-28 560,-28 560,0 495,0"/>
</g>
<!-- obj_0xa30280&#45;&gt;obj_0xa30890 -->
<g id="edge9" class="edge">
<title>obj_0xa30280&#45;&gt;obj_0xa30890</title>
<g id="a_edge9"><a xlink:title="Body&#45;&gt;parts">
<path fill="none" stroke="#ff0000" stroke-width="4.5" d="M517.26,-63.85C518.83,-56.37 520.83,-46.79 522.66,-38.09"/>
<polygon fill="#ff0000" stroke="#ff0000" stroke-width="4.5" points="526.55,-38.72 524.75,-28.13 518.84,-37.11 526.55,-38.72"/>
</a>
</g>
</g>
<!-- obj_0xa30ab0 -->
<g id="node12" class="node">
<title>obj_0xa30ab0</title>
<polygon fill="#c0c0ff" stroke="transparent" points="597.5,-1 597.5,-27 660.5,-27 660.5,-1 597.5,-1"/>
<text text-anchor="start" x="599.5" y="-10" font-family="Times,serif" font-weight="bold" font-size="20.00" fill="#000000">Body</text>
<polygon fill="none" stroke="#d0d0d0" points="596,0 596,-28 661,-28 661,0 596,0"/>
</g>
<!-- obj_0xa30890&#45;&gt;obj_0xa30ab0 -->
<g id="edge7" class="edge">
<title>obj_0xa30890&#45;&gt;obj_0xa30ab0</title>
<g id="a_edge7"><a xlink:title="Body&#45;&gt;next">
<path fill="none" stroke="#008000" stroke-width="4.5" d="M560.25,-14C568.81,-14 577.37,-14 585.92,-14"/>
<polygon fill="#008000" stroke="#008000" stroke-width="4.5" points="585.97,-17.94 595.97,-14 585.97,-10.06 585.97,-17.94"/>
</a>
</g>
</g>
<!-- obj_0xa30b70 -->
<g id="node13" class="node">
<title>obj_0xa30b70</title>
<polygon fill="#c0c0ff" stroke="transparent" points="698.5,-1 698.5,-27 761.5,-27 761.5,-1 698.5,-1"/>
<text text-anchor="start" x="700.5" y="-10" font-family="Times,serif" font-weight="bold" font-size="20.00" fill="#000000">Body</text>
<polygon fill="none" stroke="#d0d0d0" points="697,0 697,-28 762,-28 762,0 697,0"/>
</g>
<!-- obj_0xa30ab0&#45;&gt;obj_0xa30b70 -->
<g id="edge8" class="edge">
<title>obj_0xa30ab0&#45;&gt;obj_0xa30b70</title>
<g id="a_edge8"><a xlink:title="Body&#45;&gt;next">
<path fill="none" stroke="#008000" stroke-width="4.5" d="M661.25,-14C669.81,-14 678.37,-14 686.92,-14"/>
<polygon fill="#008000" stroke="#008000" stroke-width="4.5" points="686.97,-17.94 696.97,-14 686.97,-10.06 686.97,-17.94"/>
</a>
</g>
</g>
</g>
</svg>
